<?xml version="1.0" encoding="UTF-8"?>
<!-- Generator: Adobe Illustrator 16.0.3, SVG Export Plug-In . SVG Version: 6.00 Build 0)  -->
<!DOCTYPE svg PUBLIC "-//W3C//DTD SVG 1.1//EN" "http://www.w3.org/Graphics/SVG/1.1/DTD/svg11.dtd">
<svg version="1.1" id="Ebene_1" xmlns="http://www.w3.org/2000/svg" xmlns:xlink="http://www.w3.org/1999/xlink" x="0px" y="0px" viewBox="0 0 401.34 116.563" enable-background="new 0 0 401.34 116.563" xml:space="preserve">
<g>
	<defs>
		<rect id="SVGID_1_" width="401.34" height="116.563"/>
	</defs>
	<clipPath id="SVGID_2_">
		<use xlink:href="#SVGID_1_" overflow="visible"/>
	</clipPath>
	<path clip-path="url(#SVGID_2_)" fill="#71A2B5" d="M171.298,72.062c-3.744,3.69-8.58,5.408-13.832,5.408   c-13.52,0-19.24-9.309-19.293-18.773c-0.051-9.516,6.137-19.187,19.293-19.187c4.941,0,9.62,1.871,13.364,5.562l-4.576,4.422   c-2.391-2.34-5.616-3.434-8.788-3.434c-8.788,0-12.584,6.553-12.532,12.637c0.052,6.033,3.536,12.324,12.532,12.324   c3.172,0,6.76-1.299,9.152-3.691L171.298,72.062z"/>
	<rect x="176.444" y="56.773" clip-path="url(#SVGID_2_)" fill="#71A2B5" width="19.188" height="5.824"/>
	<path clip-path="url(#SVGID_2_)" fill="#71A2B5" d="M236.92,76.638h-8.164L218.147,64.47h-6.604v12.168h-6.862V40.186   c5.771,0,11.544,0.051,17.315,0.051c8.58,0.052,13.104,5.773,13.104,12.066c0,4.992-2.288,10.035-9.204,11.439l11.023,12.428   V76.638z M211.543,46.634V58.28h10.453c4.368,0,6.24-2.912,6.24-5.822c0-2.914-1.924-5.824-6.24-5.824H211.543z"/>
	<path clip-path="url(#SVGID_2_)" fill="#71A2B5" d="M279.144,58.646c-0.104,9.412-5.876,18.824-18.669,18.824   c-12.792,0-18.721-9.205-18.721-18.773c0-9.566,6.137-19.188,18.721-19.188C273.008,39.509,279.247,49.13,279.144,58.646    M248.515,58.802c0.156,5.979,3.38,12.375,11.96,12.375c8.581,0,11.804-6.447,11.909-12.428c0.103-6.136-3.328-13-11.909-13   C251.895,45.749,248.358,52.665,248.515,58.802"/>
	<path clip-path="url(#SVGID_2_)" fill="#71A2B5" d="M313.669,69.775h-19.031l-3.121,6.862h-7.437l16.329-36.401h7.488   l16.328,36.401h-7.488L313.669,69.775z M304.153,47.88l-6.761,15.498h13.521L304.153,47.88z"/>
	<path clip-path="url(#SVGID_2_)" fill="#71A2B5" d="M364.108,58.126c0.156,9.203-5.46,18.511-18.2,18.511h-14.3V40.236h14.3   C358.39,40.236,363.953,49.13,364.108,58.126 M338.421,70.035h7.487c8.269,0,11.544-6.033,11.39-11.961   c-0.157-5.668-3.485-11.338-11.39-11.338h-7.487V70.035z"/>
	<path clip-path="url(#SVGID_2_)" fill="#71A2B5" d="M394.736,49.025c-1.248-2.08-4.682-4.055-8.633-4.055   c-5.096,0-7.541,2.131-7.541,4.836c0,3.172,3.744,4.055,8.113,4.574c7.592,0.938,14.663,2.914,14.663,11.598   c0,8.111-7.175,11.595-15.288,11.595c-7.436,0-13.156-2.287-15.86-8.942l5.721-2.966c1.612,4.005,5.823,5.774,10.243,5.774   c4.315,0,8.373-1.51,8.373-5.461c0-3.432-3.588-4.836-8.424-5.355c-7.437-0.885-14.301-2.861-14.301-11.025   c0-7.488,7.385-10.556,14.092-10.607c5.67,0,11.545,1.611,14.301,7.226L394.736,49.025z"/>
	<path clip-path="url(#SVGID_2_)" fill="#507380" d="M53.883,107.053c-0.246-0.123-0.491-0.247-0.734-0.376   c-0.535-0.283-1.064-0.582-1.587-0.894c-0.168-0.102-0.34-0.194-0.507-0.298c-0.721-0.445-1.428-0.918-2.124-1.416   c-0.152-0.108-0.3-0.225-0.45-0.335c-0.668-0.492-1.323-1.009-1.966-1.547c-0.166-0.14-0.336-0.273-0.501-0.417   c-0.212-0.184-0.419-0.375-0.629-0.563c-0.299-0.271-0.597-0.542-0.891-0.822c-0.213-0.203-0.423-0.412-0.633-0.621   c-0.259-0.258-0.517-0.52-0.771-0.786c-0.353-0.369-0.7-0.749-1.043-1.133c-0.193-0.216-0.388-0.429-0.578-0.648   c-0.393-0.457-0.776-0.93-1.155-1.405c-0.125-0.157-0.254-0.307-0.377-0.466c-0.588-0.759-1.154-1.547-1.705-2.352   c-0.142-0.207-0.281-0.419-0.421-0.63c-0.457-0.688-0.902-1.393-1.331-2.113c-0.097-0.16-0.197-0.316-0.292-0.479   c-0.499-0.857-0.976-1.736-1.435-2.633c-0.11-0.216-0.215-0.438-0.324-0.655c-0.372-0.752-0.73-1.518-1.073-2.296   c-0.094-0.213-0.191-0.423-0.283-0.638c-0.403-0.946-0.785-1.908-1.143-2.889c-0.076-0.206-0.145-0.416-0.218-0.624   c-0.292-0.825-0.567-1.663-0.826-2.512c-0.078-0.254-0.157-0.506-0.232-0.762c-0.298-1.024-0.576-2.061-0.826-3.114   c-0.04-0.17-0.074-0.345-0.113-0.516c-0.208-0.915-0.396-1.843-0.567-2.778c-0.053-0.293-0.107-0.587-0.157-0.882   c-0.151-0.898-0.285-1.804-0.4-2.718c-0.017-0.137-0.04-0.271-0.056-0.406c-0.124-1.043-0.22-2.098-0.296-3.158   c-0.017-0.241-0.027-0.484-0.042-0.725c-0.084-1.378-0.139-2.767-0.139-4.172c0-0.659,0.019-1.312,0.038-1.965   c0.011-0.382,0.022-0.766,0.039-1.146c0.022-0.488,0.053-0.972,0.085-1.455c0.025-0.371,0.048-0.743,0.079-1.112   c0.021-0.261,0.051-0.519,0.076-0.779c0.128-1.351,0.286-2.691,0.492-4.009c0.003-0.016,0.005-0.032,0.007-0.048   c0.196-1.242,0.436-2.461,0.699-3.669c0.053-0.247,0.105-0.494,0.162-0.739c0.259-1.132,0.544-2.25,0.861-3.348   c0.055-0.193,0.117-0.382,0.174-0.573c0.287-0.96,0.594-1.905,0.922-2.836c0.073-0.206,0.142-0.415,0.216-0.619   c0.378-1.035,0.781-2.05,1.208-3.046c0.092-0.213,0.188-0.422,0.282-0.634c0.41-0.926,0.839-1.837,1.291-2.727   c0.061-0.119,0.118-0.243,0.179-0.362c0.517-0.998,1.065-1.966,1.632-2.914c0.117-0.196,0.236-0.392,0.356-0.587   c0.606-0.985,1.237-1.944,1.896-2.869c0.095-0.134,0.194-0.263,0.29-0.395c0.764-1.05,1.556-2.065,2.384-3.029   c0.162-0.189,0.329-0.37,0.494-0.555c0.353-0.4,0.71-0.795,1.074-1.179c0.21-0.22,0.424-0.433,0.637-0.648   c0.343-0.347,0.69-0.689,1.042-1.021c0.287-0.271,0.576-0.539,0.868-0.8c0.154-0.138,0.307-0.277,0.463-0.411   c0.426-0.37,0.859-0.729,1.297-1.078c0.066-0.053,0.13-0.109,0.196-0.161c0.503-0.395,1.014-0.774,1.531-1.141   c0.15-0.106,0.302-0.207,0.452-0.31c0.378-0.261,0.759-0.515,1.144-0.76c0.18-0.114,0.36-0.227,0.541-0.338   c0.389-0.238,0.783-0.468,1.179-0.691c0.156-0.087,0.311-0.178,0.468-0.264c0.504-0.273,1.014-0.533,1.529-0.781   C49.972,7.172,45.247,6.02,40.313,6.02c-0.633,0-1.26,0.024-1.886,0.061c-0.194,0.012-0.386,0.03-0.579,0.045   c-0.442,0.035-0.882,0.077-1.319,0.13c-0.207,0.025-0.413,0.051-0.619,0.08c-0.388,0.054-0.774,0.122-1.159,0.191   c-0.072,0.013-0.145,0.022-0.218,0.036c-0.157,0.029-0.315,0.053-0.472,0.085c-0.319,0.064-0.633,0.146-0.95,0.22   c-0.283,0.066-0.568,0.123-0.849,0.196c-0.125,0.033-0.248,0.073-0.372,0.107c-0.474,0.131-0.945,0.27-1.413,0.422   c-0.193,0.063-0.385,0.13-0.577,0.197c-0.327,0.113-0.65,0.235-0.974,0.358c-0.082,0.031-0.165,0.059-0.248,0.091   c-0.186,0.073-0.373,0.144-0.558,0.22C27.627,8.66,27.14,8.875,26.657,9.1c-0.08,0.038-0.162,0.071-0.242,0.109   c-0.224,0.107-0.442,0.228-0.664,0.34c-0.333,0.168-0.668,0.331-0.997,0.509c-0.157,0.086-0.312,0.177-0.467,0.264   c-0.397,0.223-0.791,0.453-1.181,0.692c-0.18,0.111-0.36,0.223-0.54,0.337c-0.385,0.245-0.766,0.499-1.144,0.76   c-0.15,0.103-0.302,0.204-0.451,0.31c-0.383,0.272-0.759,0.559-1.135,0.845c-0.131,0.101-0.266,0.194-0.397,0.296   c-0.065,0.052-0.129,0.107-0.194,0.159c-0.438,0.349-0.871,0.709-1.298,1.079c-0.156,0.135-0.31,0.274-0.464,0.412   c-0.292,0.261-0.58,0.529-0.867,0.799l-0.001,0.001c-0.352,0.332-0.698,0.674-1.042,1.02c-0.143,0.145-0.287,0.29-0.429,0.437   c-0.069,0.071-0.139,0.14-0.208,0.212c-0.364,0.384-0.72,0.779-1.074,1.179l-0.001,0.001c-0.164,0.185-0.331,0.365-0.493,0.553   v0.001c-0.828,0.965-1.62,1.979-2.384,3.029c-0.096,0.132-0.195,0.261-0.29,0.395c-0.659,0.925-1.29,1.884-1.896,2.869v0.001   c-0.12,0.194-0.238,0.389-0.356,0.586c-0.567,0.948-1.115,1.916-1.632,2.914C6.75,29.328,6.692,29.45,6.632,29.57H6.631   c-0.452,0.89-0.881,1.801-1.292,2.728c-0.093,0.211-0.189,0.42-0.28,0.633c-0.427,0.996-0.831,2.011-1.208,3.045   c-0.075,0.205-0.144,0.414-0.217,0.621C3.306,37.528,3,38.472,2.712,39.433v0.001c-0.057,0.191-0.119,0.379-0.174,0.572   c-0.316,1.098-0.601,2.215-0.861,3.347c-0.056,0.246-0.109,0.493-0.162,0.74C1.253,45.3,1.012,46.52,0.816,47.761   c-0.002,0.016-0.004,0.032-0.006,0.049c-0.207,1.317-0.364,2.657-0.493,4.008c-0.025,0.26-0.054,0.518-0.076,0.779   c-0.031,0.369-0.054,0.74-0.079,1.11c-0.032,0.485-0.063,0.97-0.085,1.458c-0.017,0.379-0.028,0.761-0.039,1.143   C0.02,56.962,0,57.615,0,58.275c0,0.734,0.019,1.462,0.043,2.188c0.024,0.664,0.056,1.326,0.096,1.984v0.002   c0.015,0.239,0.025,0.481,0.043,0.721v0.001c0.076,1.062,0.171,2.117,0.295,3.16c0.01,0.077,0.023,0.153,0.032,0.23   c0.008,0.056,0.016,0.11,0.023,0.165c0.115,0.918,0.25,1.828,0.402,2.729v0.002c0.049,0.293,0.103,0.583,0.156,0.874v0.001   c0.171,0.938,0.359,1.868,0.569,2.787c0.038,0.169,0.071,0.34,0.111,0.508c0.25,1.055,0.528,2.092,0.827,3.117   c0.007,0.022,0.014,0.047,0.021,0.07c0.068,0.232,0.14,0.462,0.211,0.692c0.259,0.848,0.534,1.686,0.825,2.51   c0.074,0.208,0.142,0.418,0.218,0.624c0.358,0.98,0.74,1.943,1.144,2.89c0.091,0.214,0.188,0.422,0.281,0.634   C5.64,84.946,6,85.711,6.372,86.464c0.108,0.218,0.213,0.439,0.323,0.655c0.459,0.896,0.937,1.776,1.436,2.634   c0.093,0.159,0.191,0.313,0.285,0.47c0.001,0.002,0.003,0.004,0.004,0.006c0.43,0.722,0.875,1.427,1.333,2.116   c0.14,0.211,0.279,0.422,0.421,0.63c0.551,0.805,1.117,1.591,1.705,2.351c0.123,0.159,0.252,0.31,0.377,0.467   c0.379,0.476,0.762,0.948,1.156,1.405c0.189,0.22,0.384,0.433,0.577,0.648c0.344,0.384,0.69,0.764,1.043,1.133   c0.254,0.267,0.511,0.527,0.77,0.785l0.002,0.001c0.209,0.209,0.419,0.417,0.632,0.621c0.082,0.078,0.166,0.151,0.248,0.229   c0.214,0.198,0.428,0.397,0.644,0.593c0.209,0.188,0.416,0.379,0.629,0.563c0.165,0.144,0.334,0.277,0.501,0.417   c0.643,0.539,1.298,1.055,1.965,1.547l0.001,0.001c0.15,0.109,0.297,0.226,0.448,0.334h0.001c0.696,0.498,1.404,0.972,2.124,1.417   c0.167,0.102,0.337,0.194,0.504,0.295l0.002,0.001c0.523,0.312,1.052,0.61,1.587,0.895c0.244,0.129,0.49,0.253,0.735,0.376   c0.452,0.227,0.908,0.44,1.368,0.646h0.001c0.251,0.111,0.502,0.226,0.755,0.332h0.001c0.458,0.19,0.921,0.366,1.387,0.537   l0.001,0.001c0.233,0.085,0.464,0.177,0.699,0.257c0.617,0.21,1.239,0.399,1.867,0.571c0.002,0.001,0.003,0.001,0.005,0.002   c0.085,0.023,0.167,0.054,0.252,0.075c0.719,0.192,1.446,0.354,2.179,0.495c0.211,0.041,0.425,0.069,0.637,0.105   c0.543,0.093,1.087,0.177,1.637,0.241c0.254,0.03,0.51,0.052,0.765,0.075h0.001c0.603,0.058,1.21,0.096,1.82,0.116l0.001,0.001   c0.37,0.013,0.738,0.036,1.111,0.036c4.955,0,9.697-1.149,14.077-3.253C54.22,107.211,54.05,107.136,53.883,107.053 M13.886,48.523   c0.99-7.77,3.134-15.102,6.372-21.794c0.342-0.706,1.192-1.007,1.905-0.662c0.708,0.343,1.005,1.196,0.662,1.904   c-3.103,6.414-5.159,13.45-6.11,20.911c-0.092,0.72-0.706,1.246-1.413,1.246c-0.06,0-0.12-0.004-0.181-0.011   C14.34,50.018,13.787,49.304,13.886,48.523 M23.661,93.246c-0.217,0.12-0.453,0.175-0.684,0.175c-0.504,0-0.993-0.267-1.252-0.74   c-3.563-6.505-6.043-13.731-7.367-21.48c-0.134-0.777,0.388-1.514,1.164-1.646c0.79-0.135,1.514,0.39,1.646,1.165   c1.273,7.438,3.647,14.364,7.058,20.592C24.605,92,24.353,92.867,23.661,93.246"/>
	<path clip-path="url(#SVGID_2_)" fill="#71A2B5" d="M111.002,39.832c-0.063-0.243-0.128-0.486-0.193-0.728   c-0.061-0.226-0.121-0.452-0.184-0.677c-0.288-1.032-0.596-2.052-0.927-3.057c-0.055-0.164-0.113-0.325-0.169-0.489   c-0.318-0.936-0.659-1.863-1.012-2.787c-0.055-0.142-0.107-0.285-0.163-0.426c-0.383-0.966-0.789-1.915-1.213-2.849   c-0.093-0.205-0.188-0.408-0.283-0.612c-0.441-0.948-0.896-1.885-1.377-2.797c-0.003-0.007-0.007-0.013-0.011-0.019   c-0.48-0.909-0.985-1.792-1.503-2.663c-0.11-0.185-0.219-0.371-0.331-0.554c-0.516-0.846-1.046-1.675-1.596-2.482   c-0.094-0.136-0.191-0.269-0.285-0.405c-0.51-0.734-1.034-1.452-1.572-2.151c-0.067-0.087-0.128-0.181-0.196-0.268   c-0.032-0.042-0.068-0.08-0.101-0.122c-0.53-0.677-1.073-1.337-1.629-1.979c-0.129-0.149-0.261-0.293-0.391-0.44   c-0.454-0.513-0.917-1.014-1.387-1.504c-0.094-0.098-0.183-0.204-0.278-0.302c-0.078-0.08-0.161-0.155-0.24-0.235   c-0.29-0.293-0.584-0.578-0.879-0.861c-0.209-0.201-0.417-0.404-0.629-0.6c-0.314-0.291-0.633-0.572-0.953-0.852   c-0.161-0.141-0.317-0.29-0.479-0.429c-0.029-0.023-0.059-0.044-0.087-0.067c-0.822-0.698-1.665-1.355-2.523-1.983   c-0.077-0.056-0.148-0.121-0.225-0.177c-0.057-0.041-0.117-0.075-0.174-0.116c-0.755-0.539-1.523-1.051-2.304-1.534   c-0.062-0.038-0.119-0.083-0.181-0.12c-0.1-0.062-0.205-0.112-0.305-0.173c-0.661-0.396-1.329-0.775-2.007-1.13   c-0.08-0.042-0.157-0.093-0.238-0.134c-0.029-0.015-0.059-0.027-0.088-0.042c-0.723-0.371-1.456-0.714-2.197-1.037   C82.622,3,82.554,2.962,82.482,2.932c-0.119-0.051-0.242-0.09-0.361-0.14c-0.58-0.241-1.165-0.468-1.756-0.679   C80.243,2.068,80.124,2.014,80,1.971c-0.061-0.021-0.123-0.036-0.184-0.056c-0.735-0.251-1.476-0.48-2.225-0.683   c-0.035-0.009-0.068-0.022-0.102-0.031c-0.104-0.027-0.21-0.044-0.314-0.071c-0.642-0.166-1.289-0.312-1.941-0.442   c-0.117-0.023-0.231-0.057-0.348-0.079c-0.095-0.018-0.193-0.025-0.288-0.043c-0.811-0.145-1.626-0.272-2.45-0.361   c-0.009-0.001-0.017-0.003-0.026-0.004c-0.032-0.003-0.065-0.003-0.097-0.006c-0.858-0.09-1.724-0.139-2.595-0.165   c-0.113-0.004-0.223-0.019-0.337-0.022C68.853,0.002,68.611,0,68.37,0H40.313c0.355,0,0.707,0.018,1.06,0.029   c0.871,0.026,1.738,0.075,2.595,0.165c0.041,0.004,0.083,0.006,0.123,0.01c0.824,0.089,1.639,0.216,2.45,0.361   c0.213,0.039,0.425,0.08,0.637,0.122c0.652,0.13,1.299,0.276,1.941,0.442c0.138,0.035,0.277,0.065,0.415,0.102   c0.749,0.203,1.49,0.432,2.225,0.683c0.184,0.062,0.367,0.132,0.551,0.198c0.59,0.211,1.174,0.438,1.754,0.679   c0.191,0.08,0.382,0.157,0.571,0.239c0.74,0.323,1.474,0.666,2.197,1.037c0.11,0.056,0.218,0.119,0.328,0.177   c0.677,0.355,1.344,0.733,2.004,1.129c0.162,0.097,0.326,0.193,0.488,0.293c0.78,0.484,1.548,0.995,2.303,1.534   c0.134,0.096,0.266,0.196,0.399,0.293c0.858,0.628,1.701,1.285,2.523,1.982c0.192,0.163,0.379,0.333,0.569,0.5   c0.319,0.279,0.637,0.559,0.95,0.849c0.212,0.196,0.42,0.399,0.629,0.6c0.295,0.283,0.59,0.569,0.879,0.861   c0.175,0.177,0.346,0.358,0.518,0.537c0.471,0.49,0.933,0.991,1.387,1.504c0.13,0.147,0.263,0.291,0.391,0.44   c0.556,0.642,1.099,1.302,1.63,1.979c0.086,0.11,0.169,0.223,0.254,0.335c0.565,0.743,1.115,1.497,1.652,2.26   c0.082,0.117,0.166,0.233,0.247,0.352c0.55,0.806,1.08,1.634,1.595,2.479c0.113,0.185,0.223,0.372,0.334,0.558   c0.517,0.87,1.022,1.753,1.502,2.661c0.003,0.006,0.007,0.012,0.01,0.019c0.482,0.912,0.936,1.849,1.378,2.797   c0.095,0.204,0.19,0.407,0.283,0.612c0.423,0.934,0.828,1.882,1.211,2.847c0.053,0.133,0.103,0.267,0.153,0.401   c0.36,0.946,0.708,1.897,1.037,2.855c0.052,0.15,0.105,0.299,0.155,0.451c0.331,1.002,0.639,2.021,0.927,3.052   c0.063,0.226,0.124,0.454,0.185,0.682c0.151,0.559,0.297,1.12,0.436,1.685c0.223,0.902,1.018,1.545,1.947,1.545h23.927   C110.372,42.336,111.333,41.099,111.002,39.832 M91.978,29.875c-0.185,0.081-0.379,0.119-0.568,0.119   c-0.552,0-1.075-0.32-1.309-0.857c-4.538-10.415-10.959-17.687-11.023-17.76c-0.523-0.588-0.471-1.489,0.117-2.013   c0.586-0.522,1.487-0.472,2.014,0.117c0.274,0.309,6.788,7.688,11.507,18.517C93.03,28.72,92.699,29.56,91.978,29.875"/>
	<path clip-path="url(#SVGID_2_)" fill="#71A2B5" d="M108.063,74.571H84.682c-0.711,0-1.322,0.492-1.489,1.184   c-0.132,0.545-0.271,1.088-0.415,1.626c-0.199,0.745-0.302,1.094-0.411,1.473c-0.403,1.381-0.844,2.738-1.323,4.068   c-0.479,1.329-0.996,2.63-1.548,3.901c-0.56,1.29-1.157,2.551-1.788,3.777c-0.652,1.266-1.341,2.497-2.065,3.69   c-0.773,1.274-1.587,2.507-2.438,3.692c-0.936,1.304-1.918,2.553-2.942,3.742c-1.245,1.445-2.553,2.802-3.917,4.062   c-7.344,6.785-16.328,10.776-26.034,10.776H68.37c9.706,0,18.69-3.991,26.034-10.776c1.364-1.26,2.672-2.616,3.917-4.062   c1.024-1.189,2.006-2.438,2.942-3.742c0.851-1.186,1.664-2.418,2.438-3.692c0.724-1.193,1.413-2.425,2.064-3.69   c0.632-1.227,1.229-2.487,1.789-3.777c0.552-1.271,1.068-2.572,1.547-3.901c0.48-1.33,0.921-2.688,1.324-4.068h-0.008   c0.141-0.444,0.11-0.348,0.251-0.854c0.003-0.012,0.006-0.022,0.009-0.033C111.15,76.256,109.836,74.571,108.063,74.571    M94.445,85.804c-4.718,10.828-11.232,18.208-11.506,18.517c-0.281,0.316-0.673,0.479-1.065,0.479   c-0.337,0-0.676-0.119-0.947-0.361c-0.589-0.522-0.642-1.424-0.118-2.013c0.064-0.073,6.494-7.368,11.021-17.76   c0.313-0.722,1.151-1.058,1.877-0.738C94.428,84.242,94.76,85.082,94.445,85.804"/>
</g>
</svg>